<svg xmlns="http://www.w3.org/2000/svg" width="2560" height="1440" viewBox="0 0 2560 1440">
  <defs>
    <linearGradient id="sky" x1="0" y1="0" x2="1" y2="1">
      <stop stop-color="#142a4d"/>
      <stop offset="0.48" stop-color="#416ea8"/>
      <stop offset="0.76" stop-color="#ac8ec5"/>
      <stop offset="1" stop-color="#f3b58f"/>
    </linearGradient>
    <linearGradient id="water" x1="0" y1="0" x2="0" y2="1">
      <stop stop-color="#9bb6d0" stop-opacity="0.62"/>
      <stop offset="0.34" stop-color="#426f98" stop-opacity="0.80"/>
      <stop offset="1" stop-color="#102b47"/>
    </linearGradient>
    <linearGradient id="ridge" x1="0" y1="0" x2="1" y2="1">
      <stop stop-color="#203b59"/>
      <stop offset="1" stop-color="#101c31"/>
    </linearGradient>
    <radialGradient id="sun" cx="72%" cy="30%" r="48%">
      <stop stop-color="#ffd9bd" stop-opacity="0.88"/>
      <stop offset="0.42" stop-color="#d7b3da" stop-opacity="0.30"/>
      <stop offset="1" stop-color="#9fb3e1" stop-opacity="0"/>
    </radialGradient>
    <linearGradient id="glass" x1="0" y1="0" x2="1" y2="0">
      <stop stop-color="#ffffff" stop-opacity="0"/>
      <stop offset="0.5" stop-color="#ffffff" stop-opacity="0.24"/>
      <stop offset="1" stop-color="#ffffff" stop-opacity="0"/>
    </linearGradient>
  </defs>
  <rect width="2560" height="1440" fill="url(#sky)"/>
  <rect width="2560" height="1440" fill="url(#sun)"/>
  <path d="M0 840 220 690 410 766 690 500 870 672 1060 454 1260 690 1490 548 1690 714 1910 430 2180 690 2390 560 2560 680V1010H0Z" fill="#c9d4e3" fill-opacity="0.36"/>
  <path d="M0 906 250 724 438 830 706 570 900 758 1070 526 1272 760 1500 622 1706 788 1924 504 2200 772 2404 642 2560 744V1042H0Z" fill="url(#ridge)"/>
  <path d="M0 862C410 828 700 882 1020 858s650-84 980-24 408 54 560 24v582H0Z" fill="url(#water)"/>
  <path d="M0 944c410-42 740 60 1120 12s780-88 1440 10" fill="none" stroke="url(#glass)" stroke-width="22"/>
  <path d="M120 1084c420-34 750 54 1110 8s730-58 1210 8" fill="none" stroke="url(#glass)" stroke-width="12" opacity="0.72"/>
  <path d="M-80 1260c420-48 770 42 1110 10s850-52 1630 30" fill="none" stroke="#dceeff" stroke-opacity="0.14" stroke-width="18"/>
  <ellipse cx="1840" cy="918" rx="430" ry="42" fill="#ffd4bc" fill-opacity="0.20"/>
  <rect width="2560" height="1440" fill="#091526" opacity="0.08"/>
</svg>
